<svg width="14" height="18" viewBox="0 0 14 18" fill="none" xmlns="http://www.w3.org/2000/svg">
<path d="M7.61233 16.3288L0 8.71645V10.2716C0 10.6837 0.163288 11.0802 0.458761 11.3679L6.51597 17.4251C7.12247 18.0316 8.10997 18.0316 8.71647 17.4251L13.5451 12.5965C14.1516 11.99 14.1516 11.0025 13.5451 10.396L7.61233 16.3288Z" fill="#556068"/>
<path d="M6.51597 13.5374C6.81922 13.8406 7.21577 13.9961 7.61233 13.9961C8.00889 13.9961 8.40544 13.8406 8.70869 13.5374L13.5374 8.70869C14.1438 8.10219 14.1438 7.11469 13.5374 6.50819L7.48014 0.450986C7.19245 0.163288 6.79589 0 6.38378 0H1.55512C0.699806 0 0 0.699806 0 1.55512V6.38378C0 6.79589 0.163288 7.19245 0.458761 7.48014L6.51597 13.5374ZM1.55512 1.55512H6.38378L12.441 7.61233L7.61233 12.441L1.55512 6.38378V1.55512Z" fill="#556068"/>
<path d="M3.30463 4.27658C3.84143 4.27658 4.27658 3.84143 4.27658 3.30463C4.27658 2.76784 3.84143 2.33268 3.30463 2.33268C2.76784 2.33268 2.33268 2.76784 2.33268 3.30463C2.33268 3.84143 2.76784 4.27658 3.30463 4.27658Z" fill="#556068"/>
</svg>
